<svg width="208" height="50" fill="none" xmlns="http://www.w3.org/2000/svg"><path d="M68.1 1.9V48A1.9 1.9 0 0 1 67 50l-.7.1h-12c-.5 0-1-.2-1.3-.5-.4-.4-.6-.9-.6-1.4V2c0-.5.2-1 .6-1.3.3-.4.8-.6 1.3-.6h12A1.8 1.8 0 0 1 68 1.1l.1.8Zm-18.7 46-13.9-24L48.7 2.2A1.4 1.4 0 0 0 47.6 0H33a1.4 1.4 0 0 0-1.2.6L21.7 18.2h-6V2c0-.5-.2-1-.6-1.3-.3-.4-.8-.6-1.3-.6h-12C1.5 0 .9.2.6.6.2.9 0 1.4 0 1.9V48c0 .5.2 1 .5 1.4.4.3.9.5 1.4.5h12c.4 0 .9-.2 1.2-.5.4-.4.6-.9.6-1.4V31.8h7.2l10.2 17.5a1.4 1.4 0 0 0 1.2.7h14a1.4 1.4 0 0 0 1.1-.7 1.4 1.4 0 0 0 0-1.4ZM206.2 50a1.8 1.8 0 0 0 1.8-1.9V2c0-.5-.2-1-.5-1.3-.4-.4-.9-.6-1.4-.6h-11.4a1.8 1.8 0 0 0-1.7 1.2l-.2.7v23.6L172 0h-13.3a1.8 1.8 0 0 0-1.7 1.2l-.1.7V48c0 .5.2 1 .5 1.3.4.4.8.6 1.3.6h11.5a1.8 1.8 0 0 0 1.7-1.2l.2-.7V24.5L192.7 50h13.5ZM152 2v46a2 2 0 0 1-2 2H75a2 2 0 0 1-1.5-.6 2 2 0 0 1-.6-1.5V2.1c0-.6.2-1.1.6-1.5A2 2 0 0 1 75 0h75c.5 0 1 .2 1.4.6.4.4.6 1 .6 1.5Zm-15.6 11.3a.7.7 0 0 0-.2-.5.6.6 0 0 0-.6-.1 205.2 205.2 0 0 1-47 0 .6.6 0 0 0-.1.6V36a.7.7 0 0 0 .4.6h.3a325.9 325.9 0 0 1 47 0 .7.7 0 0 0 .2-.6V13.3Z" fill="#fff"/></svg>