<svg width="610" height="221" fill="none" xmlns="http://www.w3.org/2000/svg"><mask id="a" style="mask-type:alpha" maskUnits="userSpaceOnUse" x="0" y="0" width="610" height="146"><path d="M199.7 5.5v135c0 3-2.4 5.5-5.4 5.5h-35c-3 0-5.5-2.5-5.5-5.5V5.5c0-3 2.4-5.5 5.4-5.5h35c3 0 5.5 2.4 5.5 5.5Zm-54.8 134.3-40.8-70.1 38.7-63.3a4 4 0 0 0-3.4-6.4H97a4 4 0 0 0-3.3 1.8L63.5 53.2H45.9V5.5c0-3-2.4-5.5-5.4-5.5h-35C2.4 0 0 2.4 0 5.5v135c0 3 2.4 5.5 5.4 5.5h35c3 0 5.5-2.5 5.5-5.5V93h21.4l29.9 51a4 4 0 0 0 3.5 2h40.8a4 4 0 0 0 3.4-6.2Zm459.5 6.2c3 0 5.4-2.5 5.4-5.5V5.5c0-3-2.4-5.5-5.4-5.5h-33.6c-3 0-5.4 2.4-5.4 5.5v69L504 0h-38.9c-3 0-5.4 2.4-5.4 5.5v135c0 3 2.4 5.5 5.4 5.5h33.7c3 0 5.4-2.5 5.4-5.5v-69L565 146h39.5ZM445.6 6v134a6 6 0 0 1-6 6H219.7a6 6 0 0 1-6-6V6a6 6 0 0 1 6-6h220a6 6 0 0 1 6 6ZM400 38.8a2 2 0 0 0-2.3-1.9c-23.8 4.8-107.9 5.5-136 0-1.2-.2-2.3.7-2.3 1.9V105c0 1.2 1 2.1 2.2 2 23.4-3.5 112.3-3 136.3 0 1.1.2 2-.7 2-1.9V38.8Z" fill="#fff"/></mask><g mask="url(#a)"><path d="M612.7 0H0v146h612.7V0Z" fill="#fff"/></g><path d="M547.4 212h11v-27.8H569v-9.8h-32.2v9.8h10.6V212ZM609.9 184.2v-9.8h-16.5c-14.6 0-23.3 7-23.3 18.8 0 11.7 8.7 18.7 23.3 18.7h16.5v-9.8h-16.5c-7.8 0-12-3.1-12-9 0-5.8 4.2-8.9 12-8.9h16.5ZM507.2 196.9l-6-22.5h-19.8V212h11v-32.1l.4 1.4L501 212h12.7l8.7-32.1v32.1h11v-37.5h-19.8l-6.2 23.2-.2-.7ZM454.7 172.2c-3 0-6.8 3-9.8 8a35 35 0 0 0-5.1 17.4c0 8.3 4.6 16.6 15 16.6 10.2 0 14.9-8.4 14.9-16.6a35 35 0 0 0-5.1-17.4c-3-5-6.8-8-9.9-8ZM212 198.2c0 8.4 6.2 14.8 14.4 14.8 2.7 0 5.2-.7 7.6-2v-5c-2 1.3-4.1 2.3-7 2.3a9.8 9.8 0 0 1-9.9-10.1A9.7 9.7 0 0 1 227 188c2.6 0 4.7.6 7 2.2v-5a15.6 15.6 0 0 0-7.5-1.9c-8.2 0-14.4 6.4-14.4 14.8ZM243.7 194.7v.2h-.4l-.5-3.2h-4v20.7h5v-10.7c0-4.2 2.8-5.7 5.4-5.7h1.6v-4.5h-1.4c-.9 0-4 .2-5.7 3.2ZM263 191.1c-5.9 0-10.2 4.6-10.2 11 0 6.6 4.4 10.8 11.2 10.8 2.6 0 5-.7 7.1-2v-4a12 12 0 0 1-6.5 2.1c-3.7 0-6.4-2-7.2-5.4v-.3h14.9l.1-1.7c0-6.3-3.6-10.5-9.3-10.5Zm-5.6 9.3v-.2c.6-3.1 2.9-5.2 5.7-5.2 2.8 0 4.6 2 4.7 5.2v.2h-10.4ZM292.5 195.5l-.3-.5a8 8 0 0 0-7-3.9c-4.5 0-9.2 4-9.2 10.9 0 5.2 3.5 10.9 9.3 10.9a8 8 0 0 0 7-4l.2-.4.6 3.8h4.1v-20.8h-4l-.7 4Zm-5.8 13c-3.3 0-5.8-2.7-5.8-6.5 0-3.7 2.5-6.4 5.8-6.4s5.7 2.7 5.7 6.4c0 3.8-2.4 6.5-5.7 6.5ZM309.1 204.4v-8.7h5.8v-4h-5.8v-5h-4.7v5h-3.1v4h3v9c0 5.2 3 8.2 8.1 8.2 1.1 0 2-.1 2.9-.3v-4.1a9 9 0 0 1-1.7.1c-3 0-4.5-1.5-4.5-4.2ZM328.5 191.1c-6 0-10.3 4.6-10.3 11 0 6.6 4.4 10.8 11.2 10.8 2.6 0 5-.7 7.2-2v-4a12 12 0 0 1-6.6 2.1c-3.7 0-6.4-2-7.1-5.4v-.3h14.8l.2-1.7c0-6.3-3.7-10.5-9.4-10.5Zm-5.7 9.3v-.2c.6-3.1 2.8-5.2 5.7-5.2 2.8 0 4.6 2 4.7 5.2v.2h-10.4ZM357.7 195.5l-.4-.7a7.6 7.6 0 0 0-6.6-3.7c-4.5 0-9.3 3.8-9.3 10.9 0 5.3 3.5 10.9 9.4 10.9a8 8 0 0 0 6.9-4l.2-.4.6 3.8h4.1V182h-4.9v13.6Zm-5.6 13c-3.3 0-5.8-2.7-5.8-6.5 0-3.7 2.4-6.4 5.8-6.4 3.3 0 5.7 2.7 5.7 6.4 0 3.8-2.4 6.5-5.7 6.5ZM390.5 191.1a7.9 7.9 0 0 0-6.7 3.8l-.4.6V182h-5v30.4h4.2l.6-3.8.2.5a8 8 0 0 0 7 3.9c5.8 0 9.3-5.6 9.3-11 0-7-4.7-10.9-9.2-10.9Zm-1.5 17.4c-3.3 0-5.7-2.7-5.7-6.5 0-3.7 2.4-6.4 5.7-6.4 3.3 0 5.7 2.7 5.7 6.5 0 3.7-2.4 6.4-5.7 6.4ZM417.2 191.7l-5 14.5h-.4l-4.9-14.5h-5.3l7.9 20.2v.1l-3.5 8.5h4.9l11.3-28.8h-5Z" fill="#fff"/></svg>