<svg width="610" height="222" viewBox="0 0 610 222" fill="none" xmlns="http://www.w3.org/2000/svg">
<g filter="url(#filter0_ii_6_23)">
<path d="M199.7 6.50032V141.5C199.7 144.5 197.3 147 194.3 147H159.3C156.3 147 153.8 144.5 153.8 141.5V6.50032C153.8 3.50032 156.2 1.00032 159.2 1.00032H194.2C197.2 1.00032 199.7 3.40032 199.7 6.50032ZM144.9 140.8L104.1 70.7003L142.8 7.40032C143.257 6.79247 143.532 6.06679 143.592 5.30838C143.651 4.54998 143.493 3.79032 143.136 3.1185C142.779 2.44668 142.238 1.89056 141.577 1.51539C140.915 1.14022 140.16 0.961539 139.4 1.00032H97C96.3446 1.007 95.7008 1.17466 95.1254 1.48853C94.55 1.8024 94.0605 2.25287 93.7 2.80032L63.5 54.2003H45.9V6.50032C45.9 3.50032 43.5 1.00032 40.5 1.00032H5.5C2.4 1.00032 0 3.40032 0 6.50032V141.5C0 144.5 2.4 147 5.4 147H40.4C43.4 147 45.9 144.5 45.9 141.5V94.0003H67.3L97.2 145C97.5541 145.614 98.0647 146.122 98.6796 146.473C99.2946 146.825 99.9918 147.007 100.7 147H141.5C142.227 147.011 142.943 146.824 143.572 146.458C144.2 146.092 144.717 145.562 145.067 144.924C145.417 144.286 145.586 143.566 145.556 142.839C145.527 142.112 145.3 141.408 144.9 140.8V140.8ZM604.4 147C607.4 147 609.8 144.5 609.8 141.5V6.50032C609.8 3.50032 607.4 1.00032 604.4 1.00032H570.8C567.8 1.00032 565.4 3.40032 565.4 6.50032V75.5003L504 1.00032H465.1C462.1 1.00032 459.7 3.40032 459.7 6.50032V141.5C459.7 144.5 462.1 147 465.1 147H498.8C501.8 147 504.2 144.5 504.2 141.5V72.5003L565 147H604.5H604.4ZM445.6 7.00032V141C445.6 142.592 444.968 144.118 443.843 145.243C442.717 146.368 441.191 147 439.6 147H219.7C218.109 147 216.583 146.368 215.457 145.243C214.332 144.118 213.7 142.592 213.7 141V7.00032C213.7 5.40902 214.332 3.8829 215.457 2.75768C216.583 1.63246 218.109 1.00032 219.7 1.00032H439.7C441.291 1.00032 442.817 1.63246 443.943 2.75768C445.068 3.8829 445.7 5.40902 445.7 7.00032H445.6ZM400 39.8003C399.989 39.5189 399.919 39.2429 399.794 38.9905C399.669 38.7381 399.492 38.5149 399.275 38.3355C399.058 38.1562 398.806 38.0247 398.534 37.9497C398.263 37.8747 397.978 37.8579 397.7 37.9003C373.9 42.7003 289.8 43.4003 261.7 37.9003C260.5 37.7003 259.4 38.6003 259.4 39.8003V106C259.4 107.2 260.4 108.1 261.6 108C285 104.5 373.9 105 397.9 108C399 108.2 399.9 107.3 399.9 106.1V39.8003H400Z" fill="#EBECF0"/>
</g>
<g filter="url(#filter1_ii_6_23)">
<path d="M547.4 213H558.4V185.2H569V175.4H536.8V185.2H547.4V213ZM609.9 185.2V175.4H593.4C578.8 175.4 570.1 182.4 570.1 194.2C570.1 205.9 578.8 212.9 593.4 212.9H609.9V203.1H593.4C585.6 203.1 581.4 200 581.4 194.1C581.4 188.3 585.6 185.2 593.4 185.2H609.9V185.2ZM507.2 197.9L501.2 175.4H481.4V213H492.4V180.9L492.8 182.3L501 213H513.7L522.4 180.9V213H533.4V175.5H513.6L507.4 198.7L507.2 198V197.9ZM454.7 173.2C451.7 173.2 447.9 176.2 444.9 181.2C441.701 186.452 439.942 192.453 439.8 198.6C439.8 206.9 444.4 215.2 454.8 215.2C465 215.2 469.7 206.8 469.7 198.6C469.558 192.453 467.799 186.452 464.6 181.2C461.6 176.2 457.8 173.2 454.7 173.2V173.2ZM212 199.2C212 207.6 218.2 214 226.4 214C229.1 214 231.6 213.3 234 212V207C232 208.3 229.9 209.3 227 209.3C225.679 209.314 224.369 209.061 223.148 208.556C221.927 208.051 220.822 207.304 219.897 206.361C218.972 205.417 218.248 204.297 217.767 203.066C217.286 201.836 217.059 200.521 217.1 199.2C217.031 197.868 217.237 196.536 217.706 195.287C218.176 194.038 218.897 192.899 219.826 191.942C220.756 190.985 221.872 190.229 223.107 189.723C224.341 189.217 225.666 188.971 227 189C229.6 189 231.7 189.6 234 191.2V186.2C231.699 184.947 229.12 184.294 226.5 184.3C218.3 184.3 212.1 190.7 212.1 199.1L212 199.2ZM243.7 195.7V195.9H243.3L242.8 192.7H238.8V213.4H243.8V202.7C243.8 198.5 246.6 197 249.2 197H250.8V192.5H249.4C248.5 192.5 245.4 192.7 243.7 195.7ZM263 192.1C257.1 192.1 252.8 196.7 252.8 203.1C252.8 209.7 257.2 213.9 264 213.9C266.6 213.9 269 213.2 271.1 211.9V207.9C269.183 209.215 266.924 209.945 264.6 210C260.9 210 258.2 208 257.4 204.6V204.3H272.3L272.4 202.6C272.4 196.3 268.8 192.1 263.1 192.1H263ZM257.4 201.4V201.2C258 198.1 260.3 196 263.1 196C265.9 196 267.7 198 267.8 201.2V201.4H257.4ZM292.5 196.5L292.2 196C291.479 194.792 290.452 193.795 289.223 193.111C287.994 192.426 286.607 192.077 285.2 192.1C280.7 192.1 276 196.1 276 203C276 208.2 279.5 213.9 285.3 213.9C286.716 213.913 288.111 213.549 289.341 212.846C290.571 212.144 291.592 211.127 292.3 209.9L292.5 209.5L293.1 213.3H297.2V192.5H293.2L292.5 196.5V196.5ZM286.7 209.5C283.4 209.5 280.9 206.8 280.9 203C280.9 199.3 283.4 196.6 286.7 196.6C290 196.6 292.4 199.3 292.4 203C292.4 206.8 290 209.5 286.7 209.5ZM309.1 205.4V196.7H314.9V192.7H309.1V187.7H304.4V192.7H301.3V196.7H304.3V205.7C304.3 210.9 307.3 213.9 312.4 213.9C313.5 213.9 314.4 213.8 315.3 213.6V209.5C314.738 209.587 314.169 209.621 313.6 209.6C310.6 209.6 309.1 208.1 309.1 205.4ZM328.5 192.1C322.5 192.1 318.2 196.7 318.2 203.1C318.2 209.7 322.6 213.9 329.4 213.9C332 213.9 334.4 213.2 336.6 211.9V207.9C334.654 209.234 332.359 209.964 330 210C326.3 210 323.6 208 322.9 204.6V204.3H337.7L337.9 202.6C337.9 196.3 334.2 192.1 328.5 192.1V192.1ZM322.8 201.4V201.2C323.4 198.1 325.6 196 328.5 196C331.3 196 333.1 198 333.2 201.2V201.4H322.8ZM357.7 196.5L357.3 195.8C356.619 194.661 355.651 193.72 354.493 193.07C353.335 192.421 352.027 192.087 350.7 192.1C346.2 192.1 341.4 195.9 341.4 203C341.4 208.3 344.9 213.9 350.8 213.9C352.199 213.895 353.573 213.523 354.784 212.821C355.995 212.119 357 211.112 357.7 209.9L357.9 209.5L358.5 213.3H362.6V183H357.7V196.6V196.5ZM352.1 209.5C348.8 209.5 346.3 206.8 346.3 203C346.3 199.3 348.7 196.6 352.1 196.6C355.4 196.6 357.8 199.3 357.8 203C357.8 206.8 355.4 209.5 352.1 209.5ZM390.5 192.1C389.152 192.109 387.828 192.463 386.655 193.128C385.483 193.793 384.5 194.748 383.8 195.9L383.4 196.5V183H378.4V213.4H382.6L383.2 209.6L383.4 210.1C384.121 211.308 385.148 212.305 386.376 212.99C387.605 213.675 388.993 214.023 390.4 214C396.2 214 399.7 208.4 399.7 203C399.7 196 395 192.1 390.5 192.1V192.1ZM389 209.5C385.7 209.5 383.3 206.8 383.3 203C383.3 199.3 385.7 196.6 389 196.6C392.3 196.6 394.7 199.3 394.7 203.1C394.7 206.8 392.3 209.5 389 209.5ZM417.2 192.7L412.2 207.2H411.8L406.9 192.7H401.6L409.5 212.9V213L406 221.5H410.9L422.2 192.7H417.2V192.7Z" fill="#EBECF0"/>
</g>
<defs>
<filter id="filter0_ii_6_23" x="-1" y="-0.00488281" width="611.8" height="148.006" filterUnits="userSpaceOnUse" color-interpolation-filters="sRGB">
<feFlood flood-opacity="0" result="BackgroundImageFix"/>
<feBlend mode="normal" in="SourceGraphic" in2="BackgroundImageFix" result="shape"/>
<feColorMatrix in="SourceAlpha" type="matrix" values="0 0 0 0 0 0 0 0 0 0 0 0 0 0 0 0 0 0 127 0" result="hardAlpha"/>
<feOffset dx="-1" dy="-1"/>
<feGaussianBlur stdDeviation="1"/>
<feComposite in2="hardAlpha" operator="arithmetic" k2="-1" k3="1"/>
<feColorMatrix type="matrix" values="0 0 0 0 1 0 0 0 0 1 0 0 0 0 1 0 0 0 1 0"/>
<feBlend mode="normal" in2="shape" result="effect1_innerShadow_6_23"/>
<feColorMatrix in="SourceAlpha" type="matrix" values="0 0 0 0 0 0 0 0 0 0 0 0 0 0 0 0 0 0 127 0" result="hardAlpha"/>
<feOffset dx="1" dy="1"/>
<feGaussianBlur stdDeviation="1"/>
<feComposite in2="hardAlpha" operator="arithmetic" k2="-1" k3="1"/>
<feColorMatrix type="matrix" values="0 0 0 0 0.729412 0 0 0 0 0.745098 0 0 0 0 0.8 0 0 0 1 0"/>
<feBlend mode="normal" in2="effect1_innerShadow_6_23" result="effect2_innerShadow_6_23"/>
</filter>
<filter id="filter1_ii_6_23" x="211" y="172.2" width="399.9" height="50.3" filterUnits="userSpaceOnUse" color-interpolation-filters="sRGB">
<feFlood flood-opacity="0" result="BackgroundImageFix"/>
<feBlend mode="normal" in="SourceGraphic" in2="BackgroundImageFix" result="shape"/>
<feColorMatrix in="SourceAlpha" type="matrix" values="0 0 0 0 0 0 0 0 0 0 0 0 0 0 0 0 0 0 127 0" result="hardAlpha"/>
<feOffset dx="-1" dy="-1"/>
<feGaussianBlur stdDeviation="1"/>
<feComposite in2="hardAlpha" operator="arithmetic" k2="-1" k3="1"/>
<feColorMatrix type="matrix" values="0 0 0 0 1 0 0 0 0 1 0 0 0 0 1 0 0 0 1 0"/>
<feBlend mode="normal" in2="shape" result="effect1_innerShadow_6_23"/>
<feColorMatrix in="SourceAlpha" type="matrix" values="0 0 0 0 0 0 0 0 0 0 0 0 0 0 0 0 0 0 127 0" result="hardAlpha"/>
<feOffset dx="1" dy="1"/>
<feGaussianBlur stdDeviation="1"/>
<feComposite in2="hardAlpha" operator="arithmetic" k2="-1" k3="1"/>
<feColorMatrix type="matrix" values="0 0 0 0 0.729412 0 0 0 0 0.745098 0 0 0 0 0.8 0 0 0 1 0"/>
<feBlend mode="normal" in2="effect1_innerShadow_6_23" result="effect2_innerShadow_6_23"/>
</filter>
</defs>
</svg>
