<svg width="320" height="116" viewBox="0 0 320 116" fill="none" xmlns="http://www.w3.org/2000/svg">
<g filter="url(#filter0_ii_7_2)">
<path d="M104.778 2.88845V73.7197C104.778 75.2938 103.519 76.6054 101.945 76.6054H83.5809C82.0069 76.6054 80.6952 75.2938 80.6952 73.7197V2.88845C80.6952 1.31442 81.9544 0.00272926 83.5284 0.00272926H101.892C103.466 0.00272926 104.778 1.26195 104.778 2.88845ZM76.0256 73.3525L54.6188 36.5727L74.9238 3.36066C75.1638 3.04173 75.3078 2.66098 75.3391 2.26307C75.3704 1.86515 75.2875 1.46657 75.1002 1.11409C74.913 0.761599 74.6291 0.46982 74.2819 0.272975C73.9346 0.0761297 73.5385 -0.0176177 73.1399 0.00272926H50.8936C50.5497 0.00623675 50.2119 0.0942001 49.91 0.258881C49.6081 0.423562 49.3513 0.659915 49.1622 0.947146L33.3169 27.9155H24.0826V2.88845C24.0826 1.31442 22.8234 0.00272926 21.2494 0.00272926H2.88572C1.25922 0.00272926 0 1.26195 0 2.88845V73.7197C0 75.2938 1.25922 76.6054 2.83325 76.6054H21.1969C22.7709 76.6054 24.0826 75.2938 24.0826 73.7197V48.7976H35.3107L50.9985 75.5561C51.1843 75.8779 51.4522 76.1446 51.7749 76.329C52.0975 76.5134 52.4633 76.6088 52.8349 76.6054H74.2417C74.6232 76.6111 74.999 76.5127 75.3288 76.3208C75.6585 76.1288 75.9297 75.8506 76.1131 75.5161C76.2966 75.1816 76.3854 74.8033 76.37 74.4221C76.3545 74.0409 76.2355 73.6711 76.0256 73.3525V73.3525ZM317.114 76.6054C318.688 76.6054 319.948 75.2938 319.948 73.7197V2.88845C319.948 1.31442 318.688 0.00272926 317.114 0.00272926H299.485C297.911 0.00272926 296.652 1.26195 296.652 2.88845V39.0911L264.437 0.00272926H244.027C242.453 0.00272926 241.194 1.26195 241.194 2.88845V73.7197C241.194 75.2938 242.453 76.6054 244.027 76.6054H261.708C263.282 76.6054 264.542 75.2938 264.542 73.7197V37.5171L296.442 76.6054H317.167H317.114ZM233.796 3.15079V73.4574C233.796 74.2923 233.464 75.093 232.874 75.6834C232.283 76.2738 231.483 76.6054 230.648 76.6054H115.271C114.436 76.6054 113.636 76.2738 113.045 75.6834C112.455 75.093 112.123 74.2923 112.123 73.4574V3.15079C112.123 2.31587 112.455 1.51515 113.045 0.924774C113.636 0.334399 114.436 0.00272926 115.271 0.00272926H230.7C231.535 0.00272926 232.336 0.334399 232.926 0.924774C233.516 1.51515 233.848 2.31587 233.848 3.15079H233.796ZM209.87 20.3602C209.865 20.2125 209.828 20.0677 209.762 19.9353C209.697 19.8028 209.604 19.6857 209.49 19.5916C209.376 19.4975 209.244 19.4285 209.101 19.3892C208.959 19.3498 208.81 19.341 208.664 19.3633C196.176 21.8817 152.051 22.249 137.308 19.3633C136.678 19.2583 136.101 19.7306 136.101 20.3602V55.0937C136.101 55.7233 136.626 56.1955 137.255 56.1431C149.533 54.3067 196.176 54.569 208.769 56.1431C209.346 56.248 209.818 55.7758 209.818 55.1462V20.3602H209.87Z" fill="#EBECF0"/>
</g>
<g filter="url(#filter1_ii_7_2)">
<path d="M287.208 111.234H292.979V96.648H298.541V91.5062H281.646V96.648H287.208V111.234ZM320 96.648V91.5062H311.343C303.683 91.5062 299.118 95.1789 299.118 101.37C299.118 107.509 303.683 111.182 311.343 111.182H320V106.04H311.343C307.25 106.04 305.047 104.413 305.047 101.318C305.047 98.2745 307.25 96.648 311.343 96.648H320V96.648ZM266.116 103.311L262.968 91.5062H252.579V111.234H258.351V94.3919L258.56 95.1265L262.863 111.234H269.526L274.091 94.3919V111.234H279.862V91.5587H269.474L266.221 103.731L266.116 103.364V103.311ZM238.57 90.3519C236.996 90.3519 235.002 91.9259 233.428 94.5493C231.75 97.3045 230.827 100.453 230.753 103.679C230.753 108.033 233.166 112.388 238.623 112.388C243.974 112.388 246.44 107.981 246.44 103.679C246.366 100.453 245.443 97.3045 243.765 94.5493C242.19 91.9259 240.197 90.3519 238.57 90.3519V90.3519ZM111.231 103.993C111.231 108.401 114.484 111.759 118.787 111.759C120.203 111.759 121.515 111.391 122.774 110.709V108.086C121.725 108.768 120.623 109.293 119.101 109.293C118.408 109.3 117.721 109.167 117.08 108.902C116.44 108.637 115.86 108.245 115.375 107.75C114.889 107.255 114.509 106.667 114.257 106.022C114.005 105.376 113.886 104.686 113.907 103.993C113.871 103.294 113.979 102.595 114.225 101.94C114.472 101.285 114.85 100.688 115.338 100.185C115.825 99.683 116.411 99.2867 117.059 99.0211C117.706 98.7556 118.402 98.6264 119.101 98.6418C120.466 98.6418 121.567 98.9566 122.774 99.7961V97.1727C121.567 96.5152 120.214 96.1724 118.839 96.1758C114.537 96.1758 111.284 99.5337 111.284 103.941L111.231 103.993ZM127.864 102.157V102.262H127.654L127.391 100.583H125.293V111.444H127.916V105.83C127.916 103.626 129.385 102.839 130.749 102.839H131.589V100.478H130.854C130.382 100.478 128.756 100.583 127.864 102.157ZM137.99 100.268C134.894 100.268 132.638 102.682 132.638 106.04C132.638 109.503 134.947 111.706 138.514 111.706C139.879 111.706 141.138 111.339 142.24 110.657V108.558C141.234 109.248 140.049 109.631 138.829 109.66C136.888 109.66 135.471 108.611 135.052 106.827V106.669H142.869L142.922 105.777C142.922 102.472 141.033 100.268 138.042 100.268H137.99ZM135.052 105.148V105.043C135.366 103.416 136.573 102.315 138.042 102.315C139.511 102.315 140.456 103.364 140.508 105.043V105.148H135.052ZM153.468 102.577L153.31 102.315C152.932 101.681 152.393 101.158 151.749 100.798C151.104 100.439 150.376 100.256 149.638 100.268C147.277 100.268 144.811 102.367 144.811 105.987C144.811 108.716 146.647 111.706 149.69 111.706C150.433 111.713 151.165 111.522 151.81 111.153C152.455 110.785 152.991 110.251 153.363 109.608L153.468 109.398L153.783 111.391H155.934V100.478H153.835L153.468 102.577V102.577ZM150.425 109.398C148.693 109.398 147.382 107.981 147.382 105.987C147.382 104.046 148.693 102.629 150.425 102.629C152.156 102.629 153.415 104.046 153.415 105.987C153.415 107.981 152.156 109.398 150.425 109.398ZM162.177 107.246V102.682H165.22V100.583H162.177V97.9597H159.711V100.583H158.085V102.682H159.659V107.404C159.659 110.132 161.233 111.706 163.909 111.706C164.486 111.706 164.958 111.654 165.43 111.549V109.398C165.135 109.443 164.837 109.461 164.538 109.45C162.964 109.45 162.177 108.663 162.177 107.246ZM172.356 100.268C169.208 100.268 166.952 102.682 166.952 106.04C166.952 109.503 169.261 111.706 172.828 111.706C174.192 111.706 175.452 111.339 176.606 110.657V108.558C175.585 109.258 174.381 109.641 173.143 109.66C171.202 109.66 169.785 108.611 169.418 106.827V106.669H177.183L177.288 105.777C177.288 102.472 175.347 100.268 172.356 100.268V100.268ZM169.365 105.148V105.043C169.68 103.416 170.835 102.315 172.356 102.315C173.825 102.315 174.77 103.364 174.822 105.043V105.148H169.365ZM187.677 102.577L187.467 102.21C187.109 101.612 186.602 101.118 185.994 100.777C185.387 100.437 184.7 100.261 184.004 100.268C181.643 100.268 179.124 102.262 179.124 105.987C179.124 108.768 180.961 111.706 184.056 111.706C184.791 111.704 185.511 111.508 186.147 111.14C186.782 110.772 187.31 110.243 187.677 109.608L187.782 109.398L188.096 111.391H190.248V95.4937H187.677V102.629V102.577ZM184.738 109.398C183.007 109.398 181.695 107.981 181.695 105.987C181.695 104.046 182.955 102.629 184.738 102.629C186.47 102.629 187.729 104.046 187.729 105.987C187.729 107.981 186.47 109.398 184.738 109.398ZM204.886 100.268C204.179 100.273 203.484 100.459 202.869 100.808C202.254 101.157 201.738 101.657 201.371 102.262L201.161 102.577V95.4937H198.537V111.444H200.741L201.056 109.45L201.161 109.712C201.539 110.346 202.078 110.869 202.723 111.229C203.367 111.588 204.095 111.771 204.834 111.759C207.877 111.759 209.713 108.821 209.713 105.987C209.713 102.315 207.247 100.268 204.886 100.268V100.268ZM204.099 109.398C202.368 109.398 201.108 107.981 201.108 105.987C201.108 104.046 202.368 102.629 204.099 102.629C205.83 102.629 207.09 104.046 207.09 106.04C207.09 107.981 205.83 109.398 204.099 109.398ZM218.895 100.583L216.271 108.191H216.062L213.491 100.583H210.71L214.855 111.182V111.234L213.018 115.694H215.589L221.518 100.583H218.895V100.583Z" fill="#EBECF0"/>
</g>
<defs>
<filter id="filter0_ii_7_2" x="-1" y="-1" width="321.948" height="78.6057" filterUnits="userSpaceOnUse" color-interpolation-filters="sRGB">
<feFlood flood-opacity="0" result="BackgroundImageFix"/>
<feBlend mode="normal" in="SourceGraphic" in2="BackgroundImageFix" result="shape"/>
<feColorMatrix in="SourceAlpha" type="matrix" values="0 0 0 0 0 0 0 0 0 0 0 0 0 0 0 0 0 0 127 0" result="hardAlpha"/>
<feOffset dx="-1" dy="-1"/>
<feGaussianBlur stdDeviation="1"/>
<feComposite in2="hardAlpha" operator="arithmetic" k2="-1" k3="1"/>
<feColorMatrix type="matrix" values="0 0 0 0 1 0 0 0 0 1 0 0 0 0 1 0 0 0 1 0"/>
<feBlend mode="normal" in2="shape" result="effect1_innerShadow_7_2"/>
<feColorMatrix in="SourceAlpha" type="matrix" values="0 0 0 0 0 0 0 0 0 0 0 0 0 0 0 0 0 0 127 0" result="hardAlpha"/>
<feOffset dx="1" dy="1"/>
<feGaussianBlur stdDeviation="1"/>
<feComposite in2="hardAlpha" operator="arithmetic" k2="-1" k3="1"/>
<feColorMatrix type="matrix" values="0 0 0 0 0.729412 0 0 0 0 0.745098 0 0 0 0 0.8 0 0 0 1 0"/>
<feBlend mode="normal" in2="effect1_innerShadow_7_2" result="effect2_innerShadow_7_2"/>
</filter>
<filter id="filter1_ii_7_2" x="110.231" y="89.3519" width="210.769" height="27.3419" filterUnits="userSpaceOnUse" color-interpolation-filters="sRGB">
<feFlood flood-opacity="0" result="BackgroundImageFix"/>
<feBlend mode="normal" in="SourceGraphic" in2="BackgroundImageFix" result="shape"/>
<feColorMatrix in="SourceAlpha" type="matrix" values="0 0 0 0 0 0 0 0 0 0 0 0 0 0 0 0 0 0 127 0" result="hardAlpha"/>
<feOffset dx="-1" dy="-1"/>
<feGaussianBlur stdDeviation="1"/>
<feComposite in2="hardAlpha" operator="arithmetic" k2="-1" k3="1"/>
<feColorMatrix type="matrix" values="0 0 0 0 1 0 0 0 0 1 0 0 0 0 1 0 0 0 1 0"/>
<feBlend mode="normal" in2="shape" result="effect1_innerShadow_7_2"/>
<feColorMatrix in="SourceAlpha" type="matrix" values="0 0 0 0 0 0 0 0 0 0 0 0 0 0 0 0 0 0 127 0" result="hardAlpha"/>
<feOffset dx="1" dy="1"/>
<feGaussianBlur stdDeviation="1"/>
<feComposite in2="hardAlpha" operator="arithmetic" k2="-1" k3="1"/>
<feColorMatrix type="matrix" values="0 0 0 0 0.729412 0 0 0 0 0.745098 0 0 0 0 0.8 0 0 0 1 0"/>
<feBlend mode="normal" in2="effect1_innerShadow_7_2" result="effect2_innerShadow_7_2"/>
</filter>
</defs>
</svg>
