<svg width="4519" height="3213" viewBox="0 0 4519 3213" fill="none" xmlns="http://www.w3.org/2000/svg">
<path fill-rule="evenodd" clip-rule="evenodd" d="M4519 0H0V3213H4519V0ZM2310.2 1578.36C2311.11 1578.17 2311.96 1578.86 2311.96 1579.79V1630.69C2311.96 1631.57 2311.2 1632.25 2310.32 1632.14C2291.91 1629.85 2223.68 1629.41 2205.73 1632.08C2204.84 1632.21 2204.05 1631.53 2204.05 1630.63V1579.77C2204.05 1578.85 2204.88 1578.15 2205.77 1578.33C2227.42 1582.57 2291.97 1582.01 2310.2 1578.36Z" fill="black"/>
<path d="M2158.26 1554.18V1657.84C2158.26 1660.14 2156.39 1662.02 2154.09 1662.02H2127.19C2124.89 1662.02 2123.02 1660.14 2123.02 1657.84V1554.18C2123.02 1551.88 2124.89 1550 2127.19 1550H2154.09C2156.39 1550 2158.26 1551.88 2158.26 1554.18ZM2116.2 1657.28L2084.86 1603.46L2114.56 1554.9C2115.99 1552.83 2114.52 1550 2112.01 1550H2079.38C2078.35 1550 2077.37 1550.52 2076.8 1551.38L2053.69 1590.83H2040.23V1554.18C2040.23 1551.88 2038.36 1550 2036.07 1550H2009.17C2006.87 1550 2005 1551.88 2005 1554.18V1657.84C2005 1660.14 2006.87 1662.02 2009.17 1662.02H2036.07C2038.36 1662.02 2040.23 1660.14 2040.23 1657.84V1621.35H2056.63L2079.57 1660.5C2080.14 1661.43 2081.15 1662.02 2082.24 1662.02H2113.55C2115.98 1662.02 2117.46 1659.35 2116.2 1657.28ZM2468.83 1662.02C2471.13 1662.02 2473 1660.14 2473 1657.84V1554.18C2473 1551.88 2471.13 1550 2468.83 1550H2443.07C2440.77 1550 2438.91 1551.88 2438.91 1554.18V1607.21L2391.79 1550H2361.94C2359.64 1550 2357.77 1551.88 2357.77 1554.18V1657.85C2357.77 1660.15 2359.63 1662.02 2361.93 1662.02H2387.8C2390.09 1662.02 2391.95 1660.15 2391.95 1657.85V1604.8L2438.55 1662.02H2468.83ZM2346.98 1554.62V1657.41C2346.98 1659.96 2344.91 1662.03 2342.37 1662.03H2173.63C2171.09 1662.03 2169.03 1659.96 2169.03 1657.41V1554.62C2169.03 1552.07 2171.09 1550 2173.63 1550H2342.38C2344.92 1550 2346.98 1552.07 2346.98 1554.62ZM2311.96 1579.78C2311.96 1578.85 2311.11 1578.16 2310.2 1578.35C2291.97 1582 2227.42 1582.56 2205.77 1578.32C2204.88 1578.14 2204.05 1578.83 2204.05 1579.76V1630.62C2204.05 1631.52 2204.84 1632.2 2205.73 1632.07C2223.68 1629.4 2291.91 1629.84 2310.32 1632.13C2311.2 1632.24 2311.96 1631.55 2311.96 1630.67V1579.78Z" fill="white"/>
</svg>
